<?xml version="1.0" encoding="utf-8"?>
<!-- Generator: Adobe Illustrator 23.0.5, SVG Export Plug-In . SVG Version: 6.00 Build 0)  -->
<svg version="1.1" id="Layer_1" xmlns="http://www.w3.org/2000/svg" xmlns:xlink="http://www.w3.org/1999/xlink" x="0px" y="0px"
	 viewBox="0 0 576 512" style="enable-background:new 0 0 576 512;" xml:space="preserve">
<style type="text/css">
	.st0{fill:#B8860B;}
</style>
<path class="st0" d="M568.2,336.3c-13.1-17.8-38.1-21.7-55.9-8.5L392.6,416H272c-8.7,0-15.1-7.3-15.1-16c0-8.8,7.3-16,15.1-16h78.3
	c15.1,0,30.8-10.9,33.4-26.6c3.3-20-12.1-37.4-31.6-37.4H191.1c-26.1,0-53.1,9.3-74.1,26.3L70.5,384l-55.4-0.9
	C7.3,383.1,0,391.3,0,400v96c0,8.8,7.3,16,15.1,16h346.1c22,0,43.9-7.2,61.7-20.3L558,392.2C577.5,379.1,581.3,354.1,568.2,336.3z
	 M279.3,175c-7.6-1.1-17.6-4.7-26.4-7.9l-4.9-1.7c-12.5-5.3-26.2,2.1-30.6,13.7s2.1,26.2,14.6,30.6l4.7,1.7
	c8.5,3.1,17.9,6.1,27.4,8.3V232c0,13.3,10.7,24,24,24s24-10.8,24-24v-10.4c25.3-5.7,42.9-21.9,46.1-45.7
	c8.7-50.1-38.9-63.7-64.4-70.9l-5.3-1.8c-26.3-7.5-24.8-10.7-24.1-14.8c1.2-6.8,15.3-10.1,32.2-7.4c4.9,0.8,11.4,2.5,19.6,5.4
	c12.5,4.3,26.2-2.3,30.5-14.8s-2.3-26.2-14.8-30.5c-7.6-2.6-13.9-4.4-19.8-5.7V24c0-13.3-10.8-24-24-24s-24,10.8-24,24v10.5
	c-25.2,5.7-42.9,21.7-47.9,45.6c-7.7,49.5,40.6,63.7,58.8,69.1l6.5,1.9c31.7,9.1,31.1,11.9,30.3,16.6
	C310.6,174.5,296.5,177.8,279.3,175z"/>
</svg>
